<?xml version="1.0" encoding="iso-8859-1"?>
<!-- Generator: Adobe Illustrator 19.0.0, SVG Export Plug-In . SVG Version: 6.00 Build 0)  -->
<svg version="1.1" id="Capa_1" xmlns="http://www.w3.org/2000/svg" xmlns:xlink="http://www.w3.org/1999/xlink" x="0px" y="0px"
	 viewBox="0 0 512.001 512.001" style="enable-background:new 0 0 512.001 512.001;" xml:space="preserve">
<g>
	<g>
		<path d="M226.659,0c-14.422,0-27.556,5.594-37.367,14.716c-1.449-0.794-2.982-1.478-4.6-2.023
			c-14.921-5.029-31.141,3.021-36.168,17.936c-2.585,7.674-3.514,34.606-3.838,55.848l-0.718,47.077l27.918-37.912
			c2.688-3.652,5.512-7.526,8.316-11.437c9.742,15.407,26.919,25.668,46.457,25.668c30.291,0,54.936-24.644,54.936-54.936
			S256.95,0,226.659,0z"/>
	</g>
</g>
<g>
	<g>
		<path d="M368.033,283.354c0-38.677-25.715-71.46-60.947-82.146c0.895-3.145,1.35-6.34,1.37-9.599
			c0.071-10.782-4.735-21.092-14.285-30.643l-0.836-0.836l-44.054-32.039c-2.576-1.874-5.679-2.882-8.863-2.882
			c-35.485,0-64.858,26.631-68.331,62.035L152.68,397.802h57.988v114.199h30.137v-114.2h87.513l-7.081-37.984
			C349.688,345.35,368.033,316.072,368.033,283.354z M310.866,297.334h-15.957c-47.559,0-86.25-38.692-86.25-86.25v-48.459h30.137
			v48.459c0,30.941,25.173,56.113,56.113,56.113h15.957V297.334z"/>
	</g>
</g>
<g>
</g>
<g>
</g>
<g>
</g>
<g>
</g>
<g>
</g>
<g>
</g>
<g>
</g>
<g>
</g>
<g>
</g>
<g>
</g>
<g>
</g>
<g>
</g>
<g>
</g>
<g>
</g>
<g>
</g>
</svg>
